<mxfile host="65bd71144e">
    <diagram name="Main Flowchart - ข้าวผัดกระเพรากรอบหมูกรอบ+ไข่เยี่ยวม้า" id="flow-main-1">
        <mxGraphModel dx="1916" dy="804" grid="1" gridSize="10" guides="1" tooltips="1" connect="1" arrows="1" fold="1" page="1" pageScale="1" pageWidth="827" pageHeight="1169" math="0" shadow="0">
            <root>
                <mxCell id="0"/>
                <mxCell id="1" parent="0"/>
                <mxCell id="start" value="Start" style="ellipse;whiteSpace=wrap;html=1;" parent="1" vertex="1">
                    <mxGeometry x="300" y="10" width="120" height="60" as="geometry"/>
                </mxCell>
                <mxCell id="prep_tools" value="เตรียมอุปกรณ์ครัว\n- เตา / กระทะ\n- ตะหลิว, ช้อน\n- เขียง, มีด\n- จาน/ชาม/ช้อนส้อม" style="rounded=0;whiteSpace=wrap;html=1;" parent="1" vertex="1">
                    <mxGeometry x="200" y="110" width="320" height="80" as="geometry"/>
                </mxCell>
                <mxCell id="prep_ing" value="เตรียมวัตถุดิบ\n- ข้าวสวย (ข้าวเย็น/ร่วน)\n- หมูกรอบ / หมูสามชั้น\n- ใบกระเพรา, กระเทียม, พริก\n- ไข่เยี่ยวม้า\n- น้ำปลา, ซีอิ๊ว, น้ำตาล, น้ำมัน" style="rounded=0;whiteSpace=wrap;html=1;" parent="1" vertex="1">
                    <mxGeometry x="170" y="210" width="400" height="100" as="geometry"/>
                </mxCell>
                <mxCell id="cond_pork" value="มีหมูกรอบพร้อมใช้งานหรือไม่?" style="rhombus;whiteSpace=wrap;html=1;" parent="1" vertex="1">
                    <mxGeometry x="270" y="340" width="200" height="80" as="geometry"/>
                </mxCell>
                <mxCell id="cut_pork" value="หั่นหมูกรอบเป็นชิ้นพอดีคำ" style="rounded=0;whiteSpace=wrap;html=1;" parent="1" vertex="1">
                    <mxGeometry x="60" y="450" width="220" height="60" as="geometry"/>
                </mxCell>
                <mxCell id="func_pork" value="Function: เตรียมและทอดหมูกรอบ" style="rounded=0;whiteSpace=wrap;html=1;strokeWidth=2;" parent="1" vertex="1">
                    <mxGeometry x="420" y="440" width="260" height="80" as="geometry"/>
                </mxCell>
                <mxCell id="pork_ready" value="หมูกรอบพร้อมใช้งาน" style="rounded=0;whiteSpace=wrap;html=1;" parent="1" vertex="1">
                    <mxGeometry x="250" y="560" width="240" height="60" as="geometry"/>
                </mxCell>
                <mxCell id="cond_century" value="มีไข่เยี่ยวม้าพร้อมหรือไม่?" style="rhombus;whiteSpace=wrap;html=1;" parent="1" vertex="1">
                    <mxGeometry x="260" y="660" width="220" height="80" as="geometry"/>
                </mxCell>
                <mxCell id="prep_century" value="หั่น/เตรียมไข่เยี่ยวม้า (วางข้างจาน)" style="rounded=0;whiteSpace=wrap;html=1;" parent="1" vertex="1">
                    <mxGeometry x="60" y="780" width="240" height="60" as="geometry"/>
                </mxCell>
                <mxCell id="no_century" value="ไม่มีไข่เยี่ยวม้า → ใช้ไข่ดาวแทนหรือซื้อมา" style="rounded=0;whiteSpace=wrap;html=1;" parent="1" vertex="1">
                    <mxGeometry x="420" y="780" width="260" height="60" as="geometry"/>
                </mxCell>
                <mxCell id="heat_pan" value="ตั้งกระทะ ใส่น้ำมัน พอร้อน" style="rounded=0;whiteSpace=wrap;html=1;" parent="1" vertex="1">
                    <mxGeometry x="240" y="880" width="280" height="60" as="geometry"/>
                </mxCell>
                <mxCell id="fry_garlic" value="ทอดกระเทียมสับและพริกให้หอม" style="rounded=0;whiteSpace=wrap;html=1;" parent="1" vertex="1">
                    <mxGeometry x="240" y="980" width="280" height="60" as="geometry"/>
                </mxCell>
                <mxCell id="add_pork" value="ใส่หมูกรอบลงผัดให้ร้อนทั่ว" style="rounded=0;whiteSpace=wrap;html=1;" parent="1" vertex="1">
                    <mxGeometry x="240" y="1060" width="280" height="60" as="geometry"/>
                </mxCell>
                <mxCell id="add_rice" value="ใส่ข้าวเย็นลงผัดให้ร่วน ไม่ให้เป็นก้อน" style="rounded=0;whiteSpace=wrap;html=1;" parent="1" vertex="1">
                    <mxGeometry x="240" y="1140" width="280" height="80" as="geometry"/>
                </mxCell>
                <mxCell id="cond_taste" value="รสชาติพอใจหรือไม่?" style="rhombus;whiteSpace=wrap;html=1;" parent="1" vertex="1">
                    <mxGeometry x="270" y="1240" width="220" height="80" as="geometry"/>
                </mxCell>
                <mxCell id="adjust_season" value="ปรับรสชาติ (เติมน้ำปลา/ซีอิ๊ว/น้ำตาล) แล้วผัดต่อ" style="rounded=0;whiteSpace=wrap;html=1;" parent="1" vertex="1">
                    <mxGeometry x="-30" y="1400" width="360" height="60" as="geometry"/>
                </mxCell>
                <mxCell id="add_basil" value="ใส่ใบกระเพรา ผัดเร็ว ๆ ให้เข้ากัน" style="rounded=0;whiteSpace=wrap;html=1;" parent="1" vertex="1">
                    <mxGeometry x="240" y="1570" width="280" height="60" as="geometry"/>
                </mxCell>
                <mxCell id="serve" value="ตักใส่จาน วางไข่เยี่ยวม้า/ไข่ดาว ตกแต่ง" style="rounded=0;whiteSpace=wrap;html=1;" parent="1" vertex="1">
                    <mxGeometry x="240" y="1650" width="280" height="80" as="geometry"/>
                </mxCell>
                <mxCell id="stop" value="Stop" style="ellipse;whiteSpace=wrap;html=1;" parent="1" vertex="1">
                    <mxGeometry x="320" y="1770" width="120" height="60" as="geometry"/>
                </mxCell>
                <mxCell id="e1" parent="1" source="start" target="prep_tools" edge="1">
                    <mxGeometry relative="1" as="geometry"/>
                </mxCell>
                <mxCell id="e2" parent="1" source="prep_tools" target="prep_ing" edge="1">
                    <mxGeometry relative="1" as="geometry"/>
                </mxCell>
                <mxCell id="e3" parent="1" source="prep_ing" target="cond_pork" edge="1">
                    <mxGeometry relative="1" as="geometry"/>
                </mxCell>
                <mxCell id="e4" parent="1" source="cond_pork" target="cut_pork" edge="1">
                    <mxGeometry relative="1" as="geometry"/>
                </mxCell>
                <mxCell id="e4label" value="True" style="edgeLabel;html=1;align=center;" parent="e4" vertex="1">
                    <mxGeometry x="0.5" y="-0.4" relative="1" as="geometry"/>
                </mxCell>
                <mxCell id="e5" parent="1" source="cond_pork" target="func_pork" edge="1">
                    <mxGeometry relative="1" as="geometry"/>
                </mxCell>
                <mxCell id="e5label" value="False" style="edgeLabel;html=1;align=center;" parent="e5" vertex="1">
                    <mxGeometry x="0.5" y="-0.4" relative="1" as="geometry"/>
                </mxCell>
                <mxCell id="e6" parent="1" source="cut_pork" target="pork_ready" edge="1">
                    <mxGeometry relative="1" as="geometry"/>
                </mxCell>
                <mxCell id="e7" parent="1" source="func_pork" target="pork_ready" edge="1">
                    <mxGeometry relative="1" as="geometry"/>
                </mxCell>
                <mxCell id="e8" parent="1" source="pork_ready" target="cond_century" edge="1">
                    <mxGeometry relative="1" as="geometry"/>
                </mxCell>
                <mxCell id="e9" parent="1" source="cond_century" target="prep_century" edge="1">
                    <mxGeometry relative="1" as="geometry"/>
                </mxCell>
                <mxCell id="e9label" value="True" style="edgeLabel;html=1;align=center;" parent="e9" vertex="1">
                    <mxGeometry x="0.5" y="-0.4" relative="1" as="geometry"/>
                </mxCell>
                <mxCell id="e10" parent="1" source="cond_century" target="no_century" edge="1">
                    <mxGeometry relative="1" as="geometry"/>
                </mxCell>
                <mxCell id="e10label" value="False" style="edgeLabel;html=1;align=center;" parent="e10" vertex="1">
                    <mxGeometry x="0.5" y="-0.4" relative="1" as="geometry"/>
                </mxCell>
                <mxCell id="e11" parent="1" source="prep_century" target="heat_pan" edge="1">
                    <mxGeometry relative="1" as="geometry"/>
                </mxCell>
                <mxCell id="e12" parent="1" source="no_century" target="heat_pan" edge="1">
                    <mxGeometry relative="1" as="geometry"/>
                </mxCell>
                <mxCell id="e13" parent="1" source="heat_pan" target="fry_garlic" edge="1">
                    <mxGeometry relative="1" as="geometry"/>
                </mxCell>
                <mxCell id="e14" parent="1" source="fry_garlic" target="add_pork" edge="1">
                    <mxGeometry relative="1" as="geometry"/>
                </mxCell>
                <mxCell id="e15" parent="1" source="add_pork" target="add_rice" edge="1">
                    <mxGeometry relative="1" as="geometry"/>
                </mxCell>
                <mxCell id="e16" parent="1" source="add_rice" target="cond_taste" edge="1">
                    <mxGeometry relative="1" as="geometry"/>
                </mxCell>
                <mxCell id="e17" parent="1" source="cond_taste" target="add_basil" edge="1">
                    <mxGeometry relative="1" as="geometry"/>
                </mxCell>
                <mxCell id="e17label" value="True" style="edgeLabel;html=1;align=center;" parent="e17" vertex="1">
                    <mxGeometry x="0.5" y="-0.4" relative="1" as="geometry"/>
                </mxCell>
                <mxCell id="e18" style="entryX=0.5;entryY=0;entryDx=0;entryDy=0;" parent="1" source="cond_taste" target="adjust_season" edge="1">
                    <mxGeometry relative="1" as="geometry"/>
                </mxCell>
                <mxCell id="e18label" value="False" style="edgeLabel;html=1;align=center;" parent="e18" vertex="1">
                    <mxGeometry x="0.5" y="-0.4" relative="1" as="geometry"/>
                </mxCell>
                <mxCell id="e19" style="exitX=0.5;exitY=1;exitDx=0;exitDy=0;" parent="1" source="adjust_season" target="add_basil" edge="1">
                    <mxGeometry relative="1" as="geometry"/>
                </mxCell>
                <mxCell id="e20" parent="1" source="add_basil" target="serve" edge="1">
                    <mxGeometry relative="1" as="geometry"/>
                </mxCell>
                <mxCell id="e21" parent="1" source="serve" target="stop" edge="1">
                    <mxGeometry relative="1" as="geometry"/>
                </mxCell>
            </root>
        </mxGraphModel>
    </diagram>
    <diagram name="Function - เตรียมและทอดหมูกรอบ" id="flow-func-pork-1">
        <mxGraphModel dx="1200" dy="780" grid="1" gridSize="10" guides="1" tooltips="1" connect="1" arrows="1" fold="1" page="1" pageScale="1" pageWidth="827" pageHeight="1169" math="0" shadow="0">
            <root>
                <mxCell id="0"/>
                <mxCell id="1" parent="0"/>
                <mxCell id="f_start" value="Start (Function: เตรียมและทอดหมูกรอบ)" style="ellipse;whiteSpace=wrap;html=1;" vertex="1" parent="1">
                    <mxGeometry x="220" y="20" width="360" height="60" as="geometry"/>
                </mxCell>
                <mxCell id="f1" value="ล้างหมู, ซับให้แห้ง, หั่นชิ้น" style="rounded=0;whiteSpace=wrap;html=1;" vertex="1" parent="1">
                    <mxGeometry x="160" y="120" width="480" height="60" as="geometry"/>
                </mxCell>
                <mxCell id="f2" value="ปรุงรสหรือหมักเล็กน้อย (เกลือ/พริกไทย)" style="rounded=0;whiteSpace=wrap;html=1;" vertex="1" parent="1">
                    <mxGeometry x="160" y="220" width="480" height="60" as="geometry"/>
                </mxCell>
                <mxCell id="f3" value="ตั้งน้ำมันให้ร้อน ปรับไฟกลาง-สูง" style="rounded=0;whiteSpace=wrap;html=1;" vertex="1" parent="1">
                    <mxGeometry x="160" y="320" width="480" height="60" as="geometry"/>
                </mxCell>
                <mxCell id="f4" value="ทอดหมูจนกรอบทั่ว ทอดเป็นชั้น ๆ ให้ได้ความกรอบ" style="rounded=0;whiteSpace=wrap;html=1;" vertex="1" parent="1">
                    <mxGeometry x="160" y="420" width="480" height="60" as="geometry"/>
                </mxCell>
                <mxCell id="f5" value="สะเด็ดน้ำมัน วางบนกระดาษซับน้ำมัน หั่นชิ้นพอดี" style="rounded=0;whiteSpace=wrap;html=1;" vertex="1" parent="1">
                    <mxGeometry x="160" y="520" width="480" height="60" as="geometry"/>
                </mxCell>
                <mxCell id="f_stop" value="Stop (กลับไป Main)" style="ellipse;whiteSpace=wrap;html=1;" vertex="1" parent="1">
                    <mxGeometry x="300" y="640" width="240" height="60" as="geometry"/>
                </mxCell>
                <!-- Edges Function Pork -->
                <mxCell id="fe1" edge="1" parent="1" source="f_start" target="f1">
                    <mxGeometry relative="1" as="geometry"/>
                </mxCell>
                <mxCell id="fe2" edge="1" parent="1" source="f1" target="f2">
                    <mxGeometry relative="1" as="geometry"/>
                </mxCell>
                <mxCell id="fe3" edge="1" parent="1" source="f2" target="f3">
                    <mxGeometry relative="1" as="geometry"/>
                </mxCell>
                <mxCell id="fe4" edge="1" parent="1" source="f3" target="f4">
                    <mxGeometry relative="1" as="geometry"/>
                </mxCell>
                <mxCell id="fe5" edge="1" parent="1" source="f4" target="f5">
                    <mxGeometry relative="1" as="geometry"/>
                </mxCell>
                <mxCell id="fe6" edge="1" parent="1" source="f5" target="f_stop">
                    <mxGeometry relative="1" as="geometry"/>
                </mxCell>
            </root>
        </mxGraphModel>
    </diagram>
    <diagram name="Function - เตรียมไข่เยี่ยวม้า" id="flow-func-century-1">
        <mxGraphModel dx="1200" dy="640" grid="1" gridSize="10" guides="1" tooltips="1" connect="1" arrows="1" fold="1" page="1" pageScale="1" pageWidth="827" pageHeight="1169" math="0" shadow="0">
            <root>
                <mxCell id="0"/>
                <mxCell id="1" parent="0"/>
                <mxCell id="c_start" value="Start (Function: เตรียมไข่เยี่ยวม้า)" style="ellipse;whiteSpace=wrap;html=1;" vertex="1" parent="1">
                    <mxGeometry x="220" y="20" width="360" height="60" as="geometry"/>
                </mxCell>
                <mxCell id="c1" value="ล้างเปลือก (ถ้ามีเปื้อน) / ปอกเปลือก" style="rounded=0;whiteSpace=wrap;html=1;" vertex="1" parent="1">
                    <mxGeometry x="160" y="120" width="480" height="60" as="geometry"/>
                </mxCell>
                <mxCell id="c2" value="หั่นเป็นชิ้นพอดี ควรวางไว้ข้างจานก่อนเสิร์ฟ" style="rounded=0;whiteSpace=wrap;html=1;" vertex="1" parent="1">
                    <mxGeometry x="160" y="220" width="480" height="60" as="geometry"/>
                </mxCell>
                <mxCell id="c_stop" value="Stop (กลับไป Main)" style="ellipse;whiteSpace=wrap;html=1;" vertex="1" parent="1">
                    <mxGeometry x="300" y="320" width="240" height="60" as="geometry"/>
                </mxCell>
                <!-- Edges Function Century -->
                <mxCell id="ce1" edge="1" parent="1" source="c_start" target="c1">
                    <mxGeometry relative="1" as="geometry"/>
                </mxCell>
                <mxCell id="ce2" edge="1" parent="1" source="c1" target="c2">
                    <mxGeometry relative="1" as="geometry"/>
                </mxCell>
                <mxCell id="ce3" edge="1" parent="1" source="c2" target="c_stop">
                    <mxGeometry relative="1" as="geometry"/>
                </mxCell>
            </root>
        </mxGraphModel>
    </diagram>
</mxfile>